<mxfile host="app.diagrams.net" modified="2024-03-30T04:04:22.031Z" agent="Mozilla/5.0 (Macintosh; Intel Mac OS X 10_15_7) AppleWebKit/537.36 (KHTML, like Gecko) Chrome/123.0.0.0 Safari/537.36" etag="aKMhD5sxLCPAabjuQrl5" version="24.2.0" type="github">
  <diagram name="第 1 页" id="5nhN6EQOwDwZ_oLLfXot">
    <mxGraphModel dx="1908" dy="1212" grid="1" gridSize="10" guides="1" tooltips="1" connect="1" arrows="1" fold="1" page="1" pageScale="1" pageWidth="827" pageHeight="1169" math="0" shadow="0">
      <root>
        <mxCell id="0" />
        <mxCell id="1" parent="0" />
        <mxCell id="67s019qZUrE5Q8vtILSB-1" value="" style="edgeStyle=orthogonalEdgeStyle;rounded=0;orthogonalLoop=1;jettySize=auto;html=1;fontSize=16;" parent="1" source="67s019qZUrE5Q8vtILSB-2" target="67s019qZUrE5Q8vtILSB-4" edge="1">
          <mxGeometry relative="1" as="geometry" />
        </mxCell>
        <mxCell id="67s019qZUrE5Q8vtILSB-2" value="开始" style="rounded=1;whiteSpace=wrap;html=1;fontSize=16;" parent="1" vertex="1">
          <mxGeometry x="190" y="750" width="100" height="50" as="geometry" />
        </mxCell>
        <mxCell id="67s019qZUrE5Q8vtILSB-3" value="" style="edgeStyle=orthogonalEdgeStyle;rounded=0;orthogonalLoop=1;jettySize=auto;html=1;fontSize=16;" parent="1" source="67s019qZUrE5Q8vtILSB-4" target="67s019qZUrE5Q8vtILSB-6" edge="1">
          <mxGeometry relative="1" as="geometry" />
        </mxCell>
        <mxCell id="67s019qZUrE5Q8vtILSB-4" value="ControlConfig" style="rounded=1;whiteSpace=wrap;html=1;fontSize=16;" parent="1" vertex="1">
          <mxGeometry x="185" y="880" width="110" height="50" as="geometry" />
        </mxCell>
        <mxCell id="67s019qZUrE5Q8vtILSB-5" value="" style="edgeStyle=orthogonalEdgeStyle;rounded=0;orthogonalLoop=1;jettySize=auto;html=1;fontSize=16;" parent="1" source="67s019qZUrE5Q8vtILSB-6" edge="1">
          <mxGeometry relative="1" as="geometry">
            <mxPoint x="240" y="1140" as="targetPoint" />
          </mxGeometry>
        </mxCell>
        <mxCell id="67s019qZUrE5Q8vtILSB-6" value="ConfigCtn" style="rounded=1;whiteSpace=wrap;html=1;fontSize=16;" parent="1" vertex="1">
          <mxGeometry x="190" y="1010" width="100" height="50" as="geometry" />
        </mxCell>
        <mxCell id="67s019qZUrE5Q8vtILSB-7" value="" style="edgeStyle=orthogonalEdgeStyle;rounded=0;orthogonalLoop=1;jettySize=auto;html=1;fontSize=16;" parent="1" source="67s019qZUrE5Q8vtILSB-8" target="67s019qZUrE5Q8vtILSB-10" edge="1">
          <mxGeometry relative="1" as="geometry" />
        </mxCell>
        <mxCell id="67s019qZUrE5Q8vtILSB-8" value="&lt;p style=&quot;margin: 0pt 0pt 0.0001pt; text-align: justify; font-family: &amp;quot;Times New Roman&amp;quot;; font-size: 16px;&quot; class=&quot;MsoNormal&quot;&gt;&lt;span style=&quot;font-family: &amp;quot;Times New Roman Regular&amp;quot;; font-size: 16px;&quot;&gt;custom-schema-template&lt;/span&gt;&lt;/p&gt;" style="rounded=1;whiteSpace=wrap;html=1;fontSize=16;" parent="1" vertex="1">
          <mxGeometry x="130" y="1140" width="220" height="70" as="geometry" />
        </mxCell>
        <mxCell id="67s019qZUrE5Q8vtILSB-9" value="" style="edgeStyle=orthogonalEdgeStyle;rounded=0;orthogonalLoop=1;jettySize=auto;html=1;fontSize=16;" parent="1" source="67s019qZUrE5Q8vtILSB-10" target="67s019qZUrE5Q8vtILSB-20" edge="1">
          <mxGeometry relative="1" as="geometry" />
        </mxCell>
        <mxCell id="67s019qZUrE5Q8vtILSB-10" value="基础类型组件" style="rounded=1;whiteSpace=wrap;html=1;fontSize=16;" parent="1" vertex="1">
          <mxGeometry x="180" y="1290" width="120" height="70" as="geometry" />
        </mxCell>
        <mxCell id="67s019qZUrE5Q8vtILSB-11" value="" style="edgeStyle=orthogonalEdgeStyle;rounded=0;orthogonalLoop=1;jettySize=auto;html=1;fontSize=16;" parent="1" source="67s019qZUrE5Q8vtILSB-12" target="67s019qZUrE5Q8vtILSB-13" edge="1">
          <mxGeometry relative="1" as="geometry" />
        </mxCell>
        <mxCell id="OfUxl9rrtyd-PGUmTfTk-1" value="" style="edgeStyle=orthogonalEdgeStyle;rounded=0;orthogonalLoop=1;jettySize=auto;html=1;fontSize=16;" edge="1" parent="1" source="67s019qZUrE5Q8vtILSB-12" target="67s019qZUrE5Q8vtILSB-13">
          <mxGeometry relative="1" as="geometry" />
        </mxCell>
        <mxCell id="67s019qZUrE5Q8vtILSB-12" value="属性面板展示" style="rounded=1;whiteSpace=wrap;html=1;fontSize=16;" parent="1" vertex="1">
          <mxGeometry x="180" y="1549" width="120" height="60" as="geometry" />
        </mxCell>
        <mxCell id="67s019qZUrE5Q8vtILSB-13" value="结束" style="rounded=1;whiteSpace=wrap;html=1;fontSize=16;" parent="1" vertex="1">
          <mxGeometry x="190" y="1650" width="100" height="50" as="geometry" />
        </mxCell>
        <mxCell id="67s019qZUrE5Q8vtILSB-14" value="拖拽物料组件&lt;br style=&quot;font-size: 16px;&quot;&gt;或点击物料组件" style="text;html=1;align=center;verticalAlign=middle;resizable=0;points=[];autosize=1;strokeColor=none;fillColor=none;fontSize=16;" parent="1" vertex="1">
          <mxGeometry x="229" y="808" width="140" height="50" as="geometry" />
        </mxCell>
        <mxCell id="67s019qZUrE5Q8vtILSB-15" value="展示组件基本信息" style="text;html=1;align=center;verticalAlign=middle;resizable=0;points=[];autosize=1;strokeColor=none;fillColor=none;fontSize=16;" parent="1" vertex="1">
          <mxGeometry x="229" y="960" width="150" height="30" as="geometry" />
        </mxCell>
        <mxCell id="67s019qZUrE5Q8vtILSB-16" value="传递组件的 fields数据" style="text;html=1;align=center;verticalAlign=middle;resizable=0;points=[];autosize=1;strokeColor=none;fillColor=none;fontSize=16;" parent="1" vertex="1">
          <mxGeometry x="229" y="1090" width="180" height="30" as="geometry" />
        </mxCell>
        <mxCell id="67s019qZUrE5Q8vtILSB-17" value="传递 type信息" style="text;html=1;align=center;verticalAlign=middle;resizable=0;points=[];autosize=1;strokeColor=none;fillColor=none;fontSize=16;" parent="1" vertex="1">
          <mxGeometry x="234" y="1240" width="120" height="30" as="geometry" />
        </mxCell>
        <mxCell id="67s019qZUrE5Q8vtILSB-19" value="" style="edgeStyle=orthogonalEdgeStyle;rounded=0;orthogonalLoop=1;jettySize=auto;html=1;fontSize=16;" parent="1" source="67s019qZUrE5Q8vtILSB-20" target="67s019qZUrE5Q8vtILSB-12" edge="1">
          <mxGeometry relative="1" as="geometry" />
        </mxCell>
        <mxCell id="OfUxl9rrtyd-PGUmTfTk-2" style="edgeStyle=orthogonalEdgeStyle;rounded=0;orthogonalLoop=1;jettySize=auto;html=1;exitX=1;exitY=0.5;exitDx=0;exitDy=0;entryX=1;entryY=0.25;entryDx=0;entryDy=0;fontSize=16;" edge="1" parent="1" source="67s019qZUrE5Q8vtILSB-20" target="67s019qZUrE5Q8vtILSB-8">
          <mxGeometry relative="1" as="geometry">
            <mxPoint x="400" y="1150" as="targetPoint" />
            <Array as="points">
              <mxPoint x="400" y="1455" />
              <mxPoint x="400" y="1158" />
            </Array>
          </mxGeometry>
        </mxCell>
        <mxCell id="67s019qZUrE5Q8vtILSB-20" value="是否child" style="rhombus;whiteSpace=wrap;html=1;fontSize=16;" parent="1" vertex="1">
          <mxGeometry x="190" y="1410" width="100" height="90" as="geometry" />
        </mxCell>
        <mxCell id="67s019qZUrE5Q8vtILSB-21" value="否" style="text;html=1;align=center;verticalAlign=middle;resizable=0;points=[];autosize=1;strokeColor=none;fillColor=none;fontSize=16;" parent="1" vertex="1">
          <mxGeometry x="240" y="1510" width="40" height="30" as="geometry" />
        </mxCell>
        <mxCell id="67s019qZUrE5Q8vtILSB-22" value="传递 child" style="text;html=1;align=center;verticalAlign=middle;resizable=0;points=[];autosize=1;strokeColor=none;fillColor=none;fontSize=16;" parent="1" vertex="1">
          <mxGeometry x="404" y="1305" width="90" height="30" as="geometry" />
        </mxCell>
        <mxCell id="OfUxl9rrtyd-PGUmTfTk-3" style="edgeStyle=orthogonalEdgeStyle;rounded=0;orthogonalLoop=1;jettySize=auto;html=1;exitX=0.5;exitY=1;exitDx=0;exitDy=0;" edge="1" parent="1" source="67s019qZUrE5Q8vtILSB-10" target="67s019qZUrE5Q8vtILSB-10">
          <mxGeometry relative="1" as="geometry" />
        </mxCell>
      </root>
    </mxGraphModel>
  </diagram>
</mxfile>
